<svg xmlns="http://www.w3.org/2000/svg" viewBox="0 0 292.78 84.06"><defs><style>.cls-1{fill:#fff;}</style></defs><g id="Layer_2" data-name="Layer 2"><g id="Layer_1-2" data-name="Layer 1"><path class="cls-1" d="M37.48,84.06v-.27a41.7,41.7,0,0,1-14.06-4.13"/><path class="cls-1" d="M37.48,13.79V0A41.7,41.7,0,0,0,23.42,4.13v9.66Z"/><path class="cls-1" d="M46.84,70V83.79A41.7,41.7,0,0,0,60.9,79.66V70Z"/><path class="cls-1" d="M60.9,37.21V4.13A41.7,41.7,0,0,0,46.84,0V23.16H14.05V10.48a42.15,42.15,0,0,0,0,62.83V37.21Z"/><path class="cls-1" d="M70.27,10.48v36.1H23.42V79.66a41.7,41.7,0,0,0,14.06,4.13V60.63H70.27V73.31a42.15,42.15,0,0,0,0-62.83Z"/><path class="cls-1" d="M160.3,45.27V69.84h-12V47c0-5-3.12-7.28-7-7.28-4.4,0-7.44,2.56-7.44,8.24V69.84h-12v-56h12V33.59c2.16-3,6.16-4.88,11.44-4.88C153.42,28.71,160.3,34.47,160.3,45.27Z"/><path class="cls-1" d="M163.34,49.84A21.2,21.2,0,1,1,184.54,71,21,21,0,0,1,163.34,49.84Zm30.4,0c0-5.69-4-9.45-9.2-9.45s-9.2,3.76-9.2,9.45,4,9.43,9.2,9.43S193.74,55.51,193.74,49.84Z"/><path class="cls-1" d="M209.34,13.74h12v56.1h-12Z"/><path class="cls-1" d="M226.94,13.74h12v56.1h-12Z"/><path class="cls-1" d="M243.34,19.11a7.2,7.2,0,1,1,7.2,7.2A7.27,7.27,0,0,1,243.34,19.11Zm1.2,10.72h12v40h-12Z"/><path class="cls-1" d="M292.78,57.84c0,9.2-8,13.12-16.64,13.12-8,0-14.08-3-17.2-9.53l10.4-5.92c1,3.05,3.28,4.72,6.8,4.72,2.88,0,4.32-.88,4.32-2.47,0-4.41-19.68-2.08-19.68-15.93,0-8.72,7.36-13.12,15.68-13.12,6.48,0,12.24,2.88,15.6,8.56l-10.24,5.52c-1.12-2.08-2.72-3.52-5.36-3.52-2.08,0-3.36.8-3.36,2.24C273.1,46.07,292.78,43,292.78,57.84Z"/></g></g></svg>